<?xml version="1.0" encoding="UTF-8"?>
<svg version="1.1" xmlns="http://www.w3.org/2000/svg" width="238" height="235">
<path d="M0 0 C78.54 0 157.08 0 238 0 C238 77.55 238 155.1 238 235 C159.46 235 80.92 235 0 235 C0 157.45 0 79.9 0 0 Z " fill="#FD224B" transform="translate(0,0)"/>
<path d="M0 0 C78.54 0 157.08 0 238 0 C238 77.55 238 155.1 238 235 C159.46 235 80.92 235 0 235 C0 157.45 0 79.9 0 0 Z M69 19 C67.88512207 19.38849121 66.77024414 19.77698242 65.62158203 20.17724609 C49.91794439 25.91878244 38.16799236 37.71670446 30 52 C29.61070313 52.65484375 29.22140625 53.3096875 28.8203125 53.984375 C22.95148248 64.63015969 21.38061887 76.29365161 21.3984375 88.26171875 C21.38986725 89.57300247 21.381297 90.88428619 21.37246704 92.23530579 C21.35769239 94.99093978 21.35801137 97.7460608 21.36865234 100.50170898 C21.37790185 103.28394349 21.36411832 106.06442692 21.32763672 108.84643555 C20.99259845 134.63573997 24.10648237 155.24944158 42.11621094 174.64404297 C55.15018407 188.0045553 73.4862268 194.99361101 91.98936462 195.28248596 C96.93131188 195.30031812 101.87102382 195.25074517 106.8125 195.1875 C108.87303706 195.17242171 110.93358483 195.15873889 112.99414062 195.14648438 C117.99636245 195.11373774 122.99806038 195.06212996 128 195 C128.28375488 195.61657471 128.56750977 196.23314941 128.85986328 196.8684082 C130.37959847 199.7096947 132.3560551 201.19551538 134.875 203.1875 C135.73867187 203.88230469 136.60234375 204.57710937 137.4921875 205.29296875 C139.82899187 207.09812661 139.82899187 207.09812661 142.2578125 207.55078125 C142.83273438 207.69902344 143.40765625 207.84726563 144 208 C144.33 208.99 144.66 209.98 145 211 C146.91792852 212.75772446 146.91792852 212.75772446 149.25 214.4375 C154 218 154 218 156.06030273 220.08911133 C160.21542056 222.79005869 163.60717679 222.5055777 168.45703125 222.390625 C169.35999435 222.38496521 170.26295746 222.37930542 171.19328308 222.37347412 C174.06690303 222.35114895 176.93925928 222.30096018 179.8125 222.25 C181.7649559 222.22992999 183.71743142 222.2116801 185.66992188 222.1953125 C190.44709878 222.15129682 195.2233354 222.08229626 200 222 C200 221.34 200 220.68 200 220 C200.66 220 201.32 220 202 220 C202 219.01 202 218.02 202 217 C201.0925 216.54625 200.185 216.0925 199.25 215.625 C194.37942358 212.85448993 190.26457584 209.15773024 186.01171875 205.54296875 C181.1806329 201.46380288 176.2627806 197.5085204 171 194 C171 192.68 171 191.36 171 190 C171.90492188 189.63648438 171.90492188 189.63648438 172.828125 189.265625 C177.35777114 187.36609597 180.72146853 185.76423983 184 182 C185.11375 181.195625 185.11375 181.195625 186.25 180.375 C186.8275 179.92125 187.405 179.4675 188 179 C188 178.34 188 177.68 188 177 C188.58394531 176.7525 189.16789063 176.505 189.76953125 176.25 C192.32931647 174.81544436 193.79523301 173.23295714 195.6875 171 C196.28949219 170.29875 196.89148438 169.5975 197.51171875 168.875 C199.05326755 167.0649564 199.05326755 167.0649564 200 165 C200.99 164.67 201.98 164.34 203 164 C206.18148736 159.11742835 208.53824364 153.84891393 209 148 C209.66 148 210.32 148 211 148 C213.12701069 134.96693159 213.46928707 122.00675071 213.53540039 108.8203125 C213.55341379 106.44708785 213.58750041 104.07392884 213.63793945 101.70117188 C213.97743524 85.71501173 212.53389494 72.66220321 206 58 C205.47521125 56.77229551 204.95076735 55.54444353 204.42675781 54.31640625 C197.74786552 39.22501572 183.48890297 26.65540545 168.27172852 20.61767578 C167.58393311 20.35196777 166.8961377 20.08625977 166.1875 19.8125 C165.54804443 19.56226074 164.90858887 19.31202148 164.24975586 19.05419922 C154.01118638 15.27557308 143.75616113 14.68335842 132.92578125 14.6640625 C131.58977629 14.65760995 130.25377264 14.65087994 128.91777039 14.64389038 C126.13175186 14.63200118 123.34585651 14.62820072 120.55981445 14.62939453 C117.73696193 14.62955682 114.91476018 14.61569897 112.09204102 14.58837891 C90.20774266 14.20751454 90.20774266 14.20751454 69 19 Z " fill="#FEFEFE" transform="translate(0,0)"/>
<path d="M0 0 C1.34894707 0.00171732 2.69789747 0.00163914 4.04684448 -0.00012207 C6.8523623 0.0015174 9.65706771 0.01996088 12.46240234 0.05175781 C16.03063712 0.09150906 19.59781676 0.09578543 23.16623116 0.08829498 C25.94438075 0.08520406 28.72229988 0.09741918 31.50039291 0.11442566 C33.44661892 0.12471771 35.39288866 0.12530093 37.33914185 0.12561035 C47.54706203 0.26076361 57.64595482 1.6665665 65.6171875 8.59375 C74.12104517 18.36709972 77.24410714 28.24209531 77.11328125 41.03125 C77.11473648 42.19197021 77.11619171 43.35269043 77.11769104 44.54858398 C77.11603987 46.98912073 77.10456703 49.42966875 77.08374023 51.87011719 C77.0547703 55.58313718 77.06315299 59.29472774 77.07617188 63.0078125 C77.06993366 65.39063187 77.06154207 67.77344677 77.05078125 70.15625 C77.05371689 71.25445068 77.05665253 72.35265137 77.05967712 73.48413086 C76.91539835 85.40583033 73.88499259 94.62484814 65.87109375 103.53515625 C57.63241439 111.46552744 46.96470417 114.64145124 35.72631836 114.78662109 C34.58750717 114.80268402 33.44869598 114.81874695 32.27537537 114.83529663 C27.07398614 114.880209 21.87267803 114.92123931 16.67114258 114.94384766 C13.93902719 114.95713395 11.20766809 114.9848997 8.47583008 115.02587891 C4.51125591 115.08531244 0.54703504 115.10258413 -3.41796875 115.1171875 C-5.22491966 115.15119156 -5.22491966 115.15119156 -7.06837463 115.18588257 C-19.21359326 115.15606516 -29.55564167 111.69272434 -38.35546875 103.12109375 C-41.6663445 98.99366291 -43.11154517 94.67191027 -44.3828125 89.59375 C-44.71925781 88.43705811 -45.05570313 87.28036621 -45.40234375 86.08862305 C-46.66516996 81.00659943 -46.74310836 76.02053697 -46.7890625 70.8046875 C-46.80046265 69.78380035 -46.81186279 68.76291321 -46.8236084 67.71109009 C-46.84242142 65.55792325 -46.8555416 63.40469996 -46.86328125 61.25146484 C-46.88263477 57.99862181 -46.94472904 54.74834191 -47.0078125 51.49609375 C-47.16340232 36.24624438 -45.22710508 26.26051903 -36.3828125 13.59375 C-34.2265625 11.43359375 -34.2265625 11.43359375 -31.8828125 9.53125 C-30.75359375 8.58572266 -30.75359375 8.58572266 -29.6015625 7.62109375 C-19.9346423 1.53234183 -11.31674518 -0.14692032 0 0 Z " fill="#FEFDFE" transform="translate(102.3828125,48.40625)"/>
<path d="M0 0 C1.4540625 1.2375 1.4540625 1.2375 2.9375 2.5 C3.58203125 3.0465625 4.2265625 3.593125 4.890625 4.15625 C6.30611785 5.3934956 7.69190824 6.66549953 9.046875 7.96875 C22.12248663 20.37626469 39.36914003 25.12080949 57.03515625 25.140625 C58.9980586 25.15894023 60.96094958 25.17850933 62.92382812 25.19921875 C66.00060492 25.22825191 69.0766414 25.25000223 72.15356445 25.25048828 C75.13558742 25.25381988 78.11592581 25.28833108 81.09765625 25.328125 C82.47438255 25.31752045 82.47438255 25.31752045 83.87892151 25.30670166 C88.41574409 25.3931815 90.35629532 25.47867764 93.9855957 28.41796875 C94.65034912 29.27003906 95.31510254 30.12210938 96 31 C97.3604767 32.26579151 98.73431635 33.51747253 100.125 34.75 C100.78757812 35.34296875 101.45015625 35.9359375 102.1328125 36.546875 C104.04183379 38.19899637 104.04183379 38.19899637 107 39 C107.680625 39.680625 108.36125 40.36125 109.0625 41.0625 C109.51004639 41.504729 109.95759277 41.94695801 110.41870117 42.40258789 C111.56584657 43.56142259 112.66486275 44.76853372 113.73168945 46.00170898 C120.85800482 53.08721393 127.9514146 53.02597375 137.453125 53.05859375 C139.3437587 53.03992325 141.23438397 53.02038138 143.125 53 C145.05470607 53.00810256 146.9844006 53.01978958 148.9140625 53.03515625 C153.61026043 53.06481937 158.30395643 53.04579644 163 53 C163 52.34 163 51.68 163 51 C163.66 51 164.32 51 165 51 C165 50.01 165 49.02 165 48 C164.11139282 47.82452637 164.11139282 47.82452637 163.20483398 47.64550781 C160.88701759 46.96692221 159.60122996 46.16339163 157.72265625 44.671875 C157.12646484 44.20136719 156.53027344 43.73085937 155.91601562 43.24609375 C154.99852539 42.50552734 154.99852539 42.50552734 154.0625 41.75 C153.45470703 41.27175781 152.84691406 40.79351562 152.22070312 40.30078125 C148.57370324 37.39734445 145.23108085 34.3598336 142 31 C146.35082321 31.65921564 150.07873196 33.00237289 154 35 C154.29519531 35.63164062 154.59039062 36.26328125 154.89453125 36.9140625 C156.39362919 39.74274907 158.21396091 40.54394672 161 42.0625 C164.37297755 43.91077403 165.82616666 44.73925 168 48 C167.75 51.625 167.75 51.625 167 55 C164.74119398 56.12940301 163.39976941 56.16458025 160.88916016 56.23706055 C159.6174144 56.27666145 159.6174144 56.27666145 158.31997681 56.31706238 C157.40227509 56.34004898 156.48457336 56.36303558 155.5390625 56.38671875 C154.59694916 56.41224319 153.65483582 56.43776764 152.68417358 56.46406555 C150.68860281 56.51612311 148.6929618 56.56554409 146.69726562 56.61254883 C143.64412422 56.68703344 140.59173754 56.77771808 137.5390625 56.86914062 C135.60158725 56.91766514 133.6640875 56.96522303 131.7265625 57.01171875 C130.81290924 57.04077805 129.89925598 57.06983734 128.95791626 57.09977722 C128.10378143 57.11672134 127.24964661 57.13366547 126.36962891 57.15112305 C125.62065338 57.17031296 124.87167786 57.18950287 124.1000061 57.20927429 C121.68880072 56.9689877 120.08809213 56.19773691 118 55 C118 54.34 118 53.68 118 53 C117.34 53 116.68 53 116 53 C115.62875 52.4225 115.2575 51.845 114.875 51.25 C112.55151569 48.46181882 110.18320311 47.46379704 106.94140625 45.94140625 C104.7142199 44.86142253 102.82720521 43.67493811 101 42 C101 41.34 101 40.68 101 40 C99.68 39.34 98.36 38.68 97 38 C97 37.34 97 36.68 97 36 C95.68 36 94.36 36 93 36 C93 35.34 93 34.68 93 34 C86.10141757 33.28658727 79.23531938 32.90752689 72.3046875 32.7890625 C71.54005188 32.7747821 70.77541626 32.76050171 69.98760986 32.74578857 C66.8171545 32.68825169 63.64686956 32.63348381 60.47607422 32.59863281 C51.59111512 32.49318415 43.38638843 32.27370361 35 29 C33.68993671 28.55782196 32.37879398 28.11882437 31.06640625 27.68359375 C29.91011719 27.27238281 28.75382812 26.86117187 27.5625 26.4375 C26.38816406 26.02371094 25.21382812 25.60992187 24.00390625 25.18359375 C21 24 21 24 18 22 C18 21.34 18 20.68 18 20 C17.1028125 19.566875 17.1028125 19.566875 16.1875 19.125 C12.37962602 17.16666481 10.86362564 15.72725129 9 12 C8.01 11.34 7.02 10.68 6 10 C6 9.01 6 8.02 6 7 C5.38125 6.773125 4.7625 6.54625 4.125 6.3125 C1.38589791 4.62070165 0.94975528 3.00755839 0 0 Z " fill="#FED3DB" transform="translate(37,169)"/>
<path d="M0 0 C1.34894707 0.00171732 2.69789747 0.00163914 4.04684448 -0.00012207 C6.8523623 0.0015174 9.65706771 0.01996088 12.46240234 0.05175781 C16.03063712 0.09150906 19.59781676 0.09578543 23.16623116 0.08829498 C25.94438075 0.08520406 28.72229988 0.09741918 31.50039291 0.11442566 C33.44661892 0.12471771 35.39288866 0.12530093 37.33914185 0.12561035 C47.51472736 0.2603355 57.6875576 1.64713207 65.6171875 8.59375 C69.16128537 12.82468854 72.60761872 17.06029073 73.6171875 22.59375 C72.6271875 22.59375 71.6371875 22.59375 70.6171875 22.59375 C70.2871875 20.94375 69.9571875 19.29375 69.6171875 17.59375 C68.1321875 17.09875 68.1321875 17.09875 66.6171875 16.59375 C66.4934375 15.954375 66.3696875 15.315 66.2421875 14.65625 C65.9328125 13.6353125 65.9328125 13.6353125 65.6171875 12.59375 C63.36974994 11.44354475 63.36974994 11.44354475 60.6171875 10.59375 C59.7921875 10.09875 58.9671875 9.60375 58.1171875 9.09375 C48.98722442 5.18090868 38.4972225 5.28486454 28.703125 5.29296875 C27.52682526 5.28868362 26.35052551 5.2843985 25.13858032 5.27998352 C22.67312255 5.27428577 20.20764798 5.27370594 17.7421875 5.27807617 C13.99449886 5.28124804 10.24759216 5.25767717 6.5 5.23242188 C4.08854265 5.23014943 1.6770832 5.22944513 -0.734375 5.23046875 C-1.83987701 5.221259 -2.94537903 5.21204926 -4.0843811 5.20256042 C-11.01314126 5.24333878 -17.98554537 5.68456108 -24.3828125 8.59375 C-24.7128125 9.58375 -25.0428125 10.57375 -25.3828125 11.59375 C-27.0546875 13.20703125 -27.0546875 13.20703125 -29.1328125 14.90625 C-34.43767648 19.41253231 -39.73210881 24.18385583 -40.79248047 31.37011719 C-41.3843662 40.69823638 -41.53698551 49.99093731 -41.51318359 59.3359375 C-41.50779006 61.85422702 -41.51318181 64.37234061 -41.51953125 66.890625 C-42.30275817 81.76995119 -42.30275817 81.76995119 -37.8828125 95.46875 C-35.45644738 99.29168574 -35.45644738 99.29168574 -34.84765625 101.7890625 C-34.69425781 102.38460937 -34.54085937 102.98015625 -34.3828125 103.59375 C-33.05813504 104.2774545 -31.72417617 104.94339186 -30.3828125 105.59375 C-29.1328125 107.71875 -29.1328125 107.71875 -28.3828125 109.59375 C-33.66568821 108.15296571 -37.16246612 104.88754517 -40.3828125 100.59375 C-42.10454622 97.02274674 -43.31438207 93.40667945 -44.3828125 89.59375 C-44.72143311 88.43560791 -45.06005371 87.27746582 -45.40893555 86.08422852 C-46.66552488 81.00438625 -46.74313912 76.01704593 -46.7890625 70.8046875 C-46.80046265 69.78380035 -46.81186279 68.76291321 -46.8236084 67.71109009 C-46.84242142 65.55792325 -46.8555416 63.40469996 -46.86328125 61.25146484 C-46.88263477 57.99862181 -46.94472904 54.74834191 -47.0078125 51.49609375 C-47.16340232 36.24624438 -45.22710508 26.26051903 -36.3828125 13.59375 C-34.2265625 11.43359375 -34.2265625 11.43359375 -31.8828125 9.53125 C-30.75359375 8.58572266 -30.75359375 8.58572266 -29.6015625 7.62109375 C-19.9346423 1.53234183 -11.31674518 -0.14692032 0 0 Z " fill="#FEE6EA" transform="translate(102.3828125,48.40625)"/>
<path d="M0 0 C1.32 0.33 2.64 0.66 4 1 C4 1.66 4 2.32 4 3 C4.99 3.33 5.98 3.66 7 4 C10.57845419 8.47306773 12.8534514 13.73119889 15 19 C15.53625 19.969375 16.0725 20.93875 16.625 21.9375 C18.32631876 25.72680087 18.64427362 28.87357399 19 33 C19.66 33 20.32 33 21 33 C23.23360444 40.18710442 23.3063157 46.99409697 23.30078125 54.484375 C23.30506638 55.77635803 23.3093515 57.06834106 23.31376648 58.3994751 C23.32119361 61.12605918 23.32096409 63.85251371 23.31567383 66.57910156 C23.3098983 70.0395552 23.32678025 73.49947024 23.3500185 76.95983505 C23.36847158 80.30136859 23.36456677 83.6427911 23.36328125 86.984375 C23.372491 88.2097699 23.38170074 89.43516479 23.39118958 90.69769287 C23.33385378 101.50908324 21.03230482 111.01524522 17 121 C16.34 121 15.68 121 15 121 C14.74734375 121.88816406 14.4946875 122.77632813 14.234375 123.69140625 C12.96767716 127.08663748 11.56145404 129.17361018 9.25 131.9375 C8.17298828 133.22720703 8.17298828 133.22720703 7.07421875 134.54296875 C6.38972656 135.35378906 5.70523438 136.16460937 5 137 C4.23623047 137.98419922 4.23623047 137.98419922 3.45703125 138.98828125 C-1.01310835 144.6354324 -6.65293587 148.25673743 -13 151.5625 C-15.18945473 152.87233346 -15.18945473 152.87233346 -16 155.375 C-16 158.69884404 -14.90530653 160.33257086 -13 163 C-16.43595166 161.47291037 -19.11912454 159.40072955 -22 157 C-21.67 155.35 -21.34 153.7 -21 152 C-20.04287109 151.72736328 -20.04287109 151.72736328 -19.06640625 151.44921875 C-17.82697266 151.07216797 -17.82697266 151.07216797 -16.5625 150.6875 C-15.73878906 150.44386719 -14.91507813 150.20023438 -14.06640625 149.94921875 C-13.38449219 149.63597656 -12.70257813 149.32273438 -12 149 C-11.67 148.01 -11.34 147.02 -11 146 C-9.01399663 144.6459068 -7.01182457 143.31542376 -5 142 C-0.14161188 137.50599099 4.32704134 132.50943799 8 127 C8.99 127 9.98 127 11 127 C11.11214844 126.46890625 11.22429687 125.9378125 11.33984375 125.390625 C12.16858677 122.38949642 13.34759982 119.61591837 14.5625 116.75 C15.01753906 115.67234375 15.47257812 114.5946875 15.94140625 113.484375 C16.29074219 112.66453125 16.64007813 111.8446875 17 111 C17.66 111 18.32 111 19 111 C20.02553335 97.9518305 20.34852055 84.90557068 20.45996094 71.8203125 C20.48657564 69.44706043 20.52750865 67.0739242 20.58300781 64.70117188 C20.95006609 48.71865865 19.57928628 35.65130156 13 21 C12.72052521 20.35946182 12.44105042 19.71892365 12.15310669 19.05897522 C9.35311244 12.66566041 6.15565819 7.48091538 1.3203125 2.42578125 C0 1 0 1 0 0 Z " fill="#FEA3B5" transform="translate(192,37)"/>
<path d="M0 0 C1.73783249 -0.00956978 1.73783249 -0.00956978 3.51077271 -0.01933289 C5.40592117 -0.02100212 5.40592117 -0.02100212 7.33935547 -0.02270508 C8.63090546 -0.02603348 9.92245544 -0.02936188 11.25314331 -0.03279114 C13.99543084 -0.03879188 16.73768683 -0.04063031 19.47998047 -0.04003906 C22.98023853 -0.03993793 26.48029152 -0.05353528 29.98050117 -0.07081127 C33.32928869 -0.08467174 36.67803967 -0.08402223 40.02685547 -0.08520508 C41.90378586 -0.09598335 41.90378586 -0.09598335 43.81863403 -0.10697937 C49.78661532 -0.09138551 54.96227022 0.05755853 60.58154297 2.14526367 C57.19738994 3.18173484 54.17086815 3.23163663 50.64233398 3.16357422 C49.44330948 3.14413254 48.24428497 3.12469086 47.00892639 3.10466003 C45.71417892 3.08067642 44.41943146 3.05669281 43.08544922 3.03198242 C40.33223911 2.99713444 37.57896072 2.96919296 34.82568359 2.94018555 C30.49395975 2.89252035 26.16288494 2.83620428 21.83178711 2.74755859 C18.31931727 2.67648275 14.80758784 2.63613993 11.29447746 2.61493874 C9.33087794 2.59506862 7.36767794 2.54357969 5.40467834 2.49113464 C-7.05868862 2.45375779 -16.38991285 6.71862243 -25.41845703 15.14526367 C-26.07845703 15.14526367 -26.73845703 15.14526367 -27.41845703 15.14526367 C-27.66595703 15.80526367 -27.91345703 16.46526367 -28.16845703 17.14526367 C-29.41835296 20.1450139 -30.82999898 23.00241773 -32.32080078 25.88745117 C-32.86414062 27.00506836 -32.86414062 27.00506836 -33.41845703 28.14526367 C-33.92787842 29.12487061 -34.4372998 30.10447754 -34.9621582 31.11376953 C-37.01257493 35.95083444 -36.84913736 40.7240412 -36.81689453 45.90698242 C-36.81976471 46.93402786 -36.82263489 47.9610733 -36.82559204 49.01924133 C-36.8276272 51.18682406 -36.8221358 53.35442539 -36.80957031 55.52197266 C-36.79359199 58.80503476 -36.80939559 62.08685033 -36.82861328 65.36987305 C-36.83827179 75.7183733 -36.80321656 85.27100308 -33.41845703 95.14526367 C-33.07298778 96.47550421 -32.73531257 97.80791874 -32.41845703 99.14526367 C-39.32176055 91.5278253 -39.8786024 83.95011555 -39.85205078 74.12182617 C-39.85729263 72.98047211 -39.86253448 71.83911804 -39.86793518 70.66317749 C-39.87433558 68.2578004 -39.87304421 65.85239192 -39.86450195 63.44702148 C-39.85599958 59.78857025 -39.88477177 56.13168571 -39.91650391 52.47338867 C-39.91811644 50.12703497 -39.91753738 47.78067853 -39.91455078 45.43432617 C-39.92578476 44.35172516 -39.93701874 43.26912415 -39.94859314 42.15371704 C-39.88388211 35.01744202 -38.53322861 29.55703137 -35.41845703 23.14526367 C-34.97244141 22.19393555 -34.52642578 21.24260742 -34.06689453 20.26245117 C-28.91148279 11.18513111 -22.36881787 5.7709086 -12.35595703 2.70776367 C-11.25123047 2.42030273 -10.14650391 2.1328418 -9.00830078 1.83666992 C-2.15864671 0.00802924 -2.15864671 0.00802924 0 0 Z " fill="#FD617E" transform="translate(93.41845703125,46.854736328125)"/>
<path d="M0 0 C1.32 0 2.64 0 4 0 C4 0.66 4 1.32 4 2 C5.32 2 6.64 2 8 2 C13.12448194 5.90258601 16.52864431 12.1466611 19.875 17.5625 C20.26840576 18.18713135 20.66181152 18.8117627 21.06713867 19.45532227 C23.59103616 23.67732589 24.36739535 27.07143466 25 32 C25.47971252 32.7609346 25.95942505 33.5218692 26.45367432 34.30586243 C31.34716873 42.83171652 30.29880385 55.16449118 30.265625 64.73828125 C30.26753845 65.98449753 30.2694519 67.23071381 30.27142334 68.51469421 C30.27277307 71.12381189 30.26916231 73.73293657 30.26074219 76.34204102 C30.24997977 80.31997762 30.26070266 84.29746737 30.2734375 88.27539062 C30.27211658 90.82552182 30.26955558 93.37565274 30.265625 95.92578125 C30.26967346 97.10409012 30.27372192 98.28239899 30.27789307 99.49641418 C30.1918876 114.7121686 30.1918876 114.7121686 26 121 C25.690625 121.94875 25.38125 122.8975 25.0625 123.875 C24.02305383 126.9321946 22.8597147 129.36540418 21 132 C20.34 132 19.68 132 19 132 C19 132.66 19 133.32 19 134 C17.02 134.99 17.02 134.99 15 136 C17.5 131 17.5 131 20 126 C20.66 126 21.32 126 22 126 C22.45720103 124.17119588 22.9122771 122.34184724 23.35992432 120.51068115 C23.79598454 118.80024563 24.26435033 117.09779817 24.76068115 115.40386963 C26.98124455 107.49423409 27.41059877 100.16972817 27.328125 91.984375 C27.32625183 90.68856506 27.32437866 89.39275513 27.32244873 88.05767822 C27.31788907 85.33812602 27.30362995 82.61887711 27.28125 79.89941406 C27.25285799 76.43436279 27.24202141 72.96954734 27.2375679 69.50439072 C27.23238868 66.16434998 27.21786073 62.82438812 27.203125 59.484375 C27.19887512 58.25088318 27.19462524 57.01739136 27.19024658 55.746521 C27.14059687 49.74202891 26.9163377 43.93691336 26 38 C25.34 38 24.68 38 24 38 C23.82984375 37.35933594 23.6596875 36.71867187 23.484375 36.05859375 C22.32837679 31.93266396 21.22343601 28.06077277 19 24.375 C17.43025371 21.72605314 16.5044899 19.72757957 15.5625 16.875 C14.20351808 12.97925184 12.04317878 10.79643456 9 8 C9 7.34 9 6.68 9 6 C8.071875 5.7525 7.14375 5.505 6.1875 5.25 C2.83541675 3.93545755 1.8122197 3.02036616 0 0 Z " fill="#FED6DD" transform="translate(187,32)"/>
<path d="M0 0 C1.35323667 -0.00015538 2.70647378 -0.00165085 4.05970764 -0.00440979 C6.88302514 -0.00578674 9.70583031 0.00664253 12.52905273 0.02954102 C16.12088583 0.05789679 19.71186757 0.05518658 23.30376339 0.0424509 C26.09476296 0.03544476 28.88557101 0.04333914 31.6765461 0.05570793 C33.63607319 0.0623263 35.59562744 0.05811118 37.55516052 0.05360413 C47.76669448 0.16051852 57.95054091 1.52320759 65.91015625 8.49609375 C69.45425412 12.72703229 72.90058747 16.96263448 73.91015625 22.49609375 C72.92015625 22.49609375 71.93015625 22.49609375 70.91015625 22.49609375 C70.58015625 20.84609375 70.25015625 19.19609375 69.91015625 17.49609375 C68.42515625 17.00109375 68.42515625 17.00109375 66.91015625 16.49609375 C66.78640625 15.85671875 66.66265625 15.21734375 66.53515625 14.55859375 C66.22578125 13.53765625 66.22578125 13.53765625 65.91015625 12.49609375 C63.5339028 11.31218152 63.5339028 11.31218152 60.91015625 10.49609375 C59.92015625 9.83609375 58.93015625 9.17609375 57.91015625 8.49609375 C57.91015625 7.83609375 57.91015625 7.17609375 57.91015625 6.49609375 C44.69528128 4.01368659 31.43192287 4.15739805 18.02978516 4.18041992 C14.15499179 4.18359799 10.28095046 4.15998963 6.40625 4.13476562 C3.91276137 4.13249372 1.41927071 4.13178863 -1.07421875 4.1328125 C-2.21719421 4.12360275 -3.36016968 4.11439301 -4.53778076 4.10490417 C-11.03197998 4.14194937 -16.64704329 4.88837718 -22.84820557 6.85261536 C-25.08984375 7.49609375 -25.08984375 7.49609375 -28.08984375 7.49609375 C-26.45660064 6.44238852 -24.77740508 5.46041451 -23.08984375 4.49609375 C-22.50492661 4.15670273 -21.92000946 3.81731171 -21.31736755 3.46763611 C-14.32383652 -0.13464779 -7.74303544 -0.0680447 0 0 Z " fill="#FEAEBD" transform="translate(102.08984375,48.50390625)"/>
<path d="M0 0 C1.4540625 1.2375 1.4540625 1.2375 2.9375 2.5 C3.58203125 3.0465625 4.2265625 3.593125 4.890625 4.15625 C6.30611785 5.3934956 7.69190824 6.66549953 9.046875 7.96875 C22.12248663 20.37626469 39.36914003 25.12080949 57.03515625 25.140625 C58.9980586 25.15894023 60.96094958 25.17850933 62.92382812 25.19921875 C66.00060492 25.22825191 69.0766414 25.25000223 72.15356445 25.25048828 C75.13558742 25.25381988 78.11592581 25.28833108 81.09765625 25.328125 C82.47438255 25.31752045 82.47438255 25.31752045 83.87892151 25.30670166 C88.43496647 25.39354791 90.37718595 25.5074799 94.05639648 28.41699219 C96 31 96 31 97 33 C92.125 32.125 92.125 32.125 91 31 C88.08615237 30.90119305 85.19174397 30.8628426 82.27734375 30.859375 C80.43944112 30.84100831 78.60155023 30.8214346 76.76367188 30.80078125 C73.87439733 30.77212408 70.98586018 30.75000831 68.09643555 30.74951172 C46.85218326 30.72366488 21.92562129 25.41189157 6 10 C6 9.01 6 8.02 6 7 C5.38125 6.773125 4.7625 6.54625 4.125 6.3125 C1.38589791 4.62070165 0.94975528 3.00755839 0 0 Z " fill="#FE738D" transform="translate(37,169)"/>
<path d="M0 0 C4.44306633 8.20258399 5.4412188 14.80964806 5.36328125 24.03125 C5.36377975 25.18057007 5.36427826 26.32989014 5.36479187 27.51403809 C5.36245848 29.94134248 5.35277353 32.36864963 5.33618164 34.79589844 C5.31275245 38.46051389 5.31560707 42.12439189 5.32226562 45.7890625 C5.30636293 58.00483062 5.03144005 69.93461824 3 82 C2.34 82 1.68 82 1 82 C0.71125 83.27875 0.4225 84.5575 0.125 85.875 C-0.54102483 88.82453855 -0.80202597 89.80202597 -3 92 C-2.46836094 88.72102279 -1.89420214 85.46050718 -1.25488281 82.20043945 C1.15564825 69.34702045 1.39837122 56.74243128 1.28125 43.69165039 C1.24989017 40.17518469 1.24023884 36.65917049 1.234375 33.14257812 C1.19567143 22.06016294 1.08206021 11.03827231 0 0 Z " fill="#F93A5D" transform="translate(208,66)"/>
<path d="M0 0 C4.18253147 1.83444363 8.3412822 3.67810956 12.4453125 5.68359375 C13.06204834 5.98257568 13.67878418 6.28155762 14.31420898 6.58959961 C16.1023853 7.45863512 17.88532073 8.33842999 19.66796875 9.21875 C33.03392957 14.97802665 45.1662307 15.57115865 59.5 15.5625 C62.34029063 15.56612159 65.17997706 15.57572022 68.0201416 15.60325623 C69.77193577 15.61990687 71.5239302 15.6230299 73.27575684 15.61024475 C78.27858709 15.65354847 81.61280862 16.32262705 86 19 C86 19.99 86 20.98 86 22 C84.68 22 83.36 22 82 22 C82 21.34 82 20.68 82 20 C75.10141757 19.28658727 68.23531938 18.90752689 61.3046875 18.7890625 C60.54005188 18.7747821 59.77541626 18.76050171 58.98760986 18.74578857 C55.8171545 18.68825169 52.64686956 18.63348381 49.47607422 18.59863281 C40.59111512 18.49318415 32.38638843 18.27370361 24 15 C22.68993671 14.55782196 21.37879398 14.11882437 20.06640625 13.68359375 C18.91011719 13.27238281 17.75382812 12.86117187 16.5625 12.4375 C15.38816406 12.02371094 14.21382812 11.60992187 13.00390625 11.18359375 C10 10 10 10 7 8 C7 7.34 7 6.68 7 6 C6.401875 5.71125 5.80375 5.4225 5.1875 5.125 C3 4 3 4 0 2 C0 1.34 0 0.68 0 0 Z " fill="#FEDCE1" transform="translate(48,183)"/>
<path d="M0 0 C1.53279846 3.06559692 0.32953282 5.56319419 -0.4296875 8.80859375 C-2.20052277 18.71799388 -2.15698899 28.68545568 -2.13037109 38.71630859 C-2.12499478 41.12734213 -2.13035462 43.53819072 -2.13671875 45.94921875 C-2.13958477 53.3578704 -2.06904654 60.65242617 -1 68 C-0.01 68.33 0.98 68.66 2 69 C3.38671875 71.21484375 3.38671875 71.21484375 4.6875 73.9375 C5.12449219 74.83339844 5.56148437 75.72929687 6.01171875 76.65234375 C7 79 7 79 7 81 C7.928125 81.37125 7.928125 81.37125 8.875 81.75 C11.35068687 83.20628639 11.95125002 84.37812506 13 87 C7.71712429 85.55921571 4.22034638 82.29379517 1 78 C-0.72173372 74.42899674 -1.93156957 70.81292945 -3 67 C-3.3393457 65.8440332 -3.67869141 64.68806641 -4.02832031 63.49707031 C-5.29427014 58.37990005 -5.3421937 53.35521086 -5.37109375 48.10546875 C-5.38012222 47.07746658 -5.3891507 46.04946442 -5.39845276 44.99031067 C-5.41289812 42.82454311 -5.4218277 40.65873248 -5.42553711 38.49291992 C-5.43742794 35.2074109 -5.48666759 31.92378525 -5.53710938 28.63867188 C-5.54657618 26.52344656 -5.55380998 24.40820984 -5.55859375 22.29296875 C-5.57812607 21.32489792 -5.59765839 20.35682709 -5.61778259 19.35942078 C-5.56966009 11.9614333 -3.47053873 6.49198257 0 0 Z " fill="#FEB4C1" transform="translate(61,71)"/>
<path d="M0 0 C2.80155369 0.01602887 5.60276729 0.00604503 8.4043293 -0.00411892 C11.80609817 -0.01283824 15.20762069 0.00240506 18.609375 0.01593018 C19.84309845 0.01299454 21.0768219 0.0100589 22.34793091 0.0070343 C32.5541884 0.1159519 42.52998232 1.39864499 51.9765625 5.44952393 C51.9765625 5.77952393 51.9765625 6.10952393 51.9765625 6.44952393 C48.63154538 6.76311928 46.89516259 6.41131478 43.80908203 4.96270752 C37.09066749 2.38430546 29.74565481 3.01920989 22.65625 3.05108643 C21.06779853 3.04906248 19.47934797 3.04614838 17.89089966 3.04238892 C14.57414843 3.03798319 11.25764074 3.04434149 7.94091797 3.05841064 C3.69966768 3.07552972 -0.5410141 3.06563333 -4.78224373 3.04769325 C-8.05773167 3.03683172 -11.33308567 3.0403121 -14.60857773 3.04807663 C-16.17221012 3.05007064 -17.73585486 3.04764755 -19.29947281 3.04063797 C-21.48659574 3.03298094 -23.67280785 3.04468447 -25.85986328 3.06134033 C-27.72229172 3.0649205 -27.72229172 3.0649205 -29.62234497 3.068573 C-33.35872163 3.48707856 -35.75505432 4.64892486 -39.0234375 6.44952393 C-41.578125 6.74249268 -41.578125 6.74249268 -43.8984375 6.63702393 C-45.07019531 6.59641846 -45.07019531 6.59641846 -46.265625 6.55499268 C-46.84570312 6.52018799 -47.42578125 6.4853833 -48.0234375 6.44952393 C-34.54409666 -2.5367033 -15.46786049 -0.1256561 0 0 Z " fill="#E23354" transform="translate(114.0234375,14.55047607421875)"/>
<path d="M0 0 C1.73783249 -0.00956978 1.73783249 -0.00956978 3.51077271 -0.01933289 C5.40592117 -0.02100212 5.40592117 -0.02100212 7.33935547 -0.02270508 C8.63090546 -0.02603348 9.92245544 -0.02936188 11.25314331 -0.03279114 C13.99543084 -0.03879188 16.73768683 -0.04063031 19.47998047 -0.04003906 C22.98023853 -0.03993793 26.48029152 -0.05353528 29.98050117 -0.07081127 C33.32928869 -0.08467174 36.67803967 -0.08402223 40.02685547 -0.08520508 C41.2781424 -0.09239059 42.52942932 -0.09957611 43.81863403 -0.10697937 C49.78661532 -0.09138551 54.96227022 0.05755853 60.58154297 2.14526367 C57.19738994 3.18173484 54.17086815 3.23163663 50.64233398 3.16357422 C49.44330948 3.14413254 48.24428497 3.12469086 47.00892639 3.10466003 C45.71417892 3.08067642 44.41943146 3.05669281 43.08544922 3.03198242 C40.33223911 2.99713444 37.57896072 2.96919296 34.82568359 2.94018555 C30.49395975 2.89252035 26.16288494 2.83620428 21.83178711 2.74755859 C18.31931727 2.67648275 14.80758784 2.63613993 11.29447746 2.61493874 C9.33087794 2.59506862 7.36767794 2.54357969 5.40467834 2.49113464 C-2.79002412 2.46655924 -8.54738502 4.0012658 -15.79823303 7.85212708 C-18.41845703 9.14526367 -18.41845703 9.14526367 -21.41845703 9.14526367 C-17.65871306 4.50824611 -14.27896874 3.18669564 -8.52783203 1.72338867 C-2.27060764 0.00844569 -2.27060764 0.00844569 0 0 Z " fill="#FE637F" transform="translate(93.41845703125,46.854736328125)"/>
<path d="M0 0 C0 0.66 0 1.32 0 2 C-0.99 2.33 -1.98 2.66 -3 3 C-3.33 3.66 -3.66 4.32 -4 5 C-11.58896701 7.29202401 -19.53373649 7.2828408 -27.38671875 7.23046875 C-29.0994976 7.22978142 -29.0994976 7.22978142 -30.84687805 7.2290802 C-33.24273732 7.22607906 -35.63859501 7.21825767 -38.03442383 7.20581055 C-41.68773353 7.18749883 -45.34078968 7.18530167 -48.99414062 7.18554688 C-51.33333551 7.18063245 -53.67252869 7.17480447 -56.01171875 7.16796875 C-57.09523117 7.16685593 -58.17874359 7.1657431 -59.29508972 7.16459656 C-64.93901293 7.12946708 -70.44080511 7.0310584 -76 6 C-76.33 5.34 -76.66 4.68 -77 4 C-75.89365204 4.00999275 -75.89365204 4.00999275 -74.76495361 4.02018738 C-67.76383747 4.08066717 -60.76281406 4.12615977 -53.76150894 4.15543652 C-50.16331961 4.17099475 -46.56534879 4.19204913 -42.96728516 4.22631836 C-39.4853785 4.25926816 -36.00368004 4.2769267 -32.52162933 4.28463173 C-30.56767399 4.29275243 -28.61380069 4.31611272 -26.65997314 4.33988953 C-17.46770214 4.34159632 -8.55117863 0 0 0 Z " fill="#DE2F52" transform="translate(160,158)"/>
<path d="M0 0 C0.66 0 1.32 0 2 0 C1.67402832 1.16909912 1.34805664 2.33819824 1.01220703 3.54272461 C-0.50249562 10.40297003 -0.24795942 17.33304082 -0.1953125 24.31640625 C-0.19157522 25.78327744 -0.18873163 27.25015116 -0.18673706 28.71702576 C-0.17915685 32.54911376 -0.15955768 36.38104644 -0.1373291 40.21307373 C-0.11674868 44.13486633 -0.10770945 48.05668441 -0.09765625 51.97851562 C-0.07630558 59.65241401 -0.04223881 67.32618511 0 75 C-3.12276756 71.60445765 -3.37855663 69.22299417 -3.38818359 64.67431641 C-3.39764008 63.3926358 -3.40709656 62.1109552 -3.4168396 60.79043579 C-3.41146859 59.39414155 -3.40531532 57.99785013 -3.3984375 56.6015625 C-3.40045957 55.16433566 -3.40337212 53.72710981 -3.40713501 52.28988647 C-3.41155497 49.27877019 -3.40514006 46.26792112 -3.39111328 43.25683594 C-3.37405204 39.40780069 -3.38384465 35.55939446 -3.40183067 31.71038246 C-3.41270392 28.74198727 -3.40920551 25.7737396 -3.4014473 22.80533981 C-3.39945345 21.38684387 -3.4018758 19.9683343 -3.40888596 18.54985428 C-3.41655445 16.56139655 -3.40278271 14.57289158 -3.38818359 12.58447266 C-3.38579681 11.45514313 -3.38341003 10.3258136 -3.38095093 9.16226196 C-2.94876127 5.57466885 -1.77917771 3.12070795 0 0 Z " fill="#FECFD9" transform="translate(23,65)"/>
<path d="M0 0 C0.66 0 1.32 0 2 0 C1.47359182 3.98961991 0.47700671 6.05957537 -2.25 9 C-2.88550781 9.68835938 -3.52101562 10.37671875 -4.17578125 11.0859375 C-4.77777344 11.71757812 -5.37976563 12.34921875 -6 13 C-6.804375 13.86625 -7.60875 14.7325 -8.4375 15.625 C-12.29271146 19.19812282 -16.40619577 22.77720658 -21.1875 25.03125 C-23.23809361 25.87860755 -23.23809361 25.87860755 -23.9375 28.3125 C-24.01633931 31.70259051 -22.94140969 33.28202643 -21 36 C-24.43595166 34.47291037 -27.11912454 32.40072955 -30 30 C-29.67 28.35 -29.34 26.7 -29 25 C-28.36191406 24.81824219 -27.72382813 24.63648438 -27.06640625 24.44921875 C-26.24011719 24.19785156 -25.41382813 23.94648438 -24.5625 23.6875 C-23.73878906 23.44386719 -22.91507813 23.20023438 -22.06640625 22.94921875 C-21.38449219 22.63597656 -20.70257813 22.32273438 -20 22 C-19.67 21.01 -19.34 20.02 -19 19 C-17.01399663 17.6459068 -15.01182457 16.31542376 -13 15 C-8.14161188 10.50599099 -3.67295866 5.50943799 0 0 Z " fill="#FD7790" transform="translate(200,164)"/>
<path d="M0 0 C8.18909442 -0.06977948 16.37806279 -0.12295211 24.56738186 -0.15543652 C28.37079372 -0.17103429 32.17400085 -0.19216348 35.97729492 -0.22631836 C39.65370229 -0.25912385 43.32991383 -0.2768972 47.00645638 -0.28463173 C48.40296571 -0.29013751 49.79946539 -0.30088814 51.19589043 -0.31719017 C59.1306797 -0.40606418 65.63254469 -0.05772319 73 3 C69.15900579 4.38275791 65.96439972 3.62397026 62 3 C59.83953553 2.89303058 57.67680542 2.82563934 55.51391602 2.79467773 C54.27315811 2.77473251 53.03240021 2.75478729 51.75404358 2.73423767 C50.42066569 2.71726017 49.08728655 2.70038112 47.75390625 2.68359375 C46.37384973 2.66299168 44.99379906 2.64199443 43.61375427 2.62062073 C40.00205252 2.56573558 36.39029703 2.51618005 32.77850342 2.46777344 C29.08470952 2.41731149 25.39099252 2.36175504 21.69726562 2.30664062 C14.46490909 2.19947028 7.2324881 2.09793611 0 2 C0 1.34 0 0.68 0 0 Z " fill="#FFD5E1" transform="translate(85,13)"/>
<path d="M0 0 C0.33 0 0.66 0 1 0 C1.04655142 7.40679605 1.08198421 14.81356001 1.10362434 22.22047329 C1.11401591 25.66062564 1.12808935 29.10067715 1.15087891 32.54077148 C1.17697348 36.50503286 1.18651104 40.46925486 1.1953125 44.43359375 C1.20563507 45.65582138 1.21595764 46.87804901 1.22659302 48.13731384 C1.22861318 63.65708023 1.22861318 63.65708023 -3 70 C-3.309375 70.94875 -3.61875 71.8975 -3.9375 72.875 C-4.97694617 75.9321946 -6.1402853 78.36540418 -8 81 C-8.66 81 -9.32 81 -10 81 C-10 81.66 -10 82.32 -10 83 C-11.98 83.99 -11.98 83.99 -14 85 C-12.33333333 81.66666667 -10.66666667 78.33333333 -9 75 C-8.34 75 -7.68 75 -7 75 C-6.54656862 73.18627448 -6.09329555 71.3725093 -5.640625 69.55859375 C-5.17426904 67.69601353 -4.70514654 65.83412533 -4.234375 63.97265625 C-3.97140625 62.92980469 -3.7084375 61.88695312 -3.4375 60.8125 C-3.18871094 59.82894531 -2.93992188 58.84539062 -2.68359375 57.83203125 C-1.62495079 53.44622471 -0.87479641 49.36351168 -0.79467773 44.8425293 C-0.77473251 43.84186935 -0.75478729 42.84120941 -0.73423767 41.81022644 C-0.71752518 40.7423439 -0.70081268 39.67446136 -0.68359375 38.57421875 C-0.6524221 36.92012749 -0.6524221 36.92012749 -0.62062073 35.23262024 C-0.55535068 31.71764222 -0.49634505 28.20259088 -0.4375 24.6875 C-0.39429335 22.30142477 -0.35067837 19.91535691 -0.30664062 17.52929688 C-0.1996924 11.68627494 -0.09788445 5.84318042 0 0 Z " fill="#FEE4E7" transform="translate(216,83)"/>
<path d="M0 0 C3.28609694 3.28609694 3.12627874 6.66394262 3.14526367 11.15722656 C3.15483345 12.70098969 3.15483345 12.70098969 3.16459656 14.27593994 C3.16570938 15.38628601 3.1668222 16.49663208 3.16796875 17.640625 C3.17129715 18.79560486 3.17462555 19.95058472 3.17805481 21.14056396 C3.18312078 23.59175214 3.18546324 26.04294722 3.18530273 28.49414062 C3.18746732 32.1941313 3.20556558 35.89381295 3.22460938 39.59375 C3.2529515 51.88364327 3.0717926 63.86269944 1 76 C0.34 76 -0.32 76 -1 76 C-1.28875 77.27875 -1.5775 78.5575 -1.875 79.875 C-2.54102483 82.82453855 -2.80202597 83.80202597 -5 86 C-4.25994803 80.79650961 -2.74217457 76.20937999 -0.9375 71.29296875 C1.24910604 63.61251502 1.14896393 55.68501976 1.1328125 47.75390625 C1.13376923 46.70275131 1.13472595 45.65159637 1.13571167 44.56858826 C1.13638864 42.35749247 1.13456825 40.14639464 1.13037109 37.93530273 C1.12502144 34.57596307 1.13032984 31.21675741 1.13671875 27.85742188 C1.13605778 25.69791638 1.13477622 23.53841096 1.1328125 21.37890625 C1.13483673 20.38693741 1.13686096 19.39496857 1.13894653 18.37294006 C1.1184624 12.19154301 0.73510667 6.13774776 0 0 Z " fill="#FE6A86" transform="translate(210,72)"/>
<path d="M0 0 C6.60176043 -0.12687837 13.203206 -0.21438377 19.8059082 -0.2746582 C22.05147044 -0.29978723 24.296951 -0.33389615 26.54223633 -0.37719727 C29.77185218 -0.43791776 33.00038584 -0.46622631 36.23046875 -0.48828125 C37.23272995 -0.51408768 38.23499115 -0.5398941 39.2676239 -0.56648254 C47.0472715 -0.56960611 47.0472715 -0.56960611 50.1730957 2.53051758 C50.77597412 3.34544678 51.37885254 4.16037598 52 5 C47.125 4.125 47.125 4.125 46 3 C42.94587588 2.86425691 39.91124247 2.78930883 36.85546875 2.75390625 C34.9628861 2.72096182 33.07030809 2.68775027 31.17773438 2.65429688 C28.1822435 2.60689754 25.18677063 2.56249043 22.19116211 2.52319336 C19.30822645 2.48346646 16.42568649 2.43191442 13.54296875 2.37890625 C12.64805222 2.3704921 11.75313568 2.36207794 10.83110046 2.35340881 C9.9937587 2.33676682 9.15641693 2.32012482 8.29370117 2.30297852 C7.55947433 2.29267105 6.8252475 2.28236359 6.06877136 2.27174377 C3.70866928 1.96173221 2.05951321 1.16681854 0 0 Z " fill="#FEA2B3" transform="translate(82,197)"/>
<path d="M0 0 C-1.12685023 3.38055068 -2.05384625 4.1079382 -4.75 6.3125 C-10.53710276 11.25068966 -14.2793007 15.840265 -17 23 C-18.88721175 17.37661903 -16.12441952 12.3559266 -13.6875 7.25 C-9.83994155 2.11992206 -6.58530515 -0.7839649 0 0 Z " fill="#FEE8EC" transform="translate(78,57)"/>
<path d="M0 0 C3.96213127 0.42451406 7.53797262 0.86294437 11.37109375 2 C17.0591071 3.42972331 22.75805276 3.35492598 28.59375 3.4140625 C30.37465027 3.44311172 30.37465027 3.44311172 32.19152832 3.4727478 C35.96094719 3.53223652 39.7303971 3.57880624 43.5 3.625 C46.06511704 3.663208 48.63022163 3.70226136 51.1953125 3.7421875 C57.46343072 3.83791278 63.73162468 3.92304921 70 4 C70 4.33 70 4.66 70 5 C62.49746279 5.09323927 54.99498669 5.16403563 47.49199963 5.20724869 C44.00690738 5.2280033 40.52221545 5.25609382 37.03735352 5.30175781 C33.01835589 5.35408311 28.99976975 5.37304512 24.98046875 5.390625 C23.12980049 5.42159271 23.12980049 5.42159271 21.241745 5.45318604 C13.39278888 5.45519499 7.16873004 4.22454316 0 1 C0 0.67 0 0.34 0 0 Z " fill="#FFCEE2" transform="translate(74,158)"/>
<path d="M0 0 C7.55490155 0.54944739 13.81301122 2.39246372 19.75 7.25 C27 16.11111111 27 16.11111111 27 20 C26.01 20 25.02 20 24 20 C23.505 17.525 23.505 17.525 23 15 C22.01 14.67 21.02 14.34 20 14 C19.87625 13.360625 19.7525 12.72125 19.625 12.0625 C19.41875 11.381875 19.2125 10.70125 19 10 C16.62374655 8.81608777 16.62374655 8.81608777 14 8 C13.01 7.34 12.02 6.68 11 6 C11 5.34 11 4.68 11 4 C9.741875 3.71125 8.48375 3.4225 7.1875 3.125 C4.1460601 2.42696461 2.69330122 1.79553415 0 0 Z " fill="#FEB2C1" transform="translate(149,51)"/>
<path d="M0 0 C0.33 1.32 0.66 2.64 1 4 C0.45730469 4.44730469 -0.08539063 4.89460937 -0.64453125 5.35546875 C-1.35996094 5.96003906 -2.07539063 6.56460938 -2.8125 7.1875 C-3.87404297 8.07501953 -3.87404297 8.07501953 -4.95703125 8.98046875 C-7.10307714 10.9246007 -7.10307714 10.9246007 -8.44921875 13.50390625 C-10.27231638 16.43831276 -12.14536696 17.82991944 -15 19.75 C-15.86625 20.34296875 -16.7325 20.9359375 -17.625 21.546875 C-20 23 -20 23 -23 24 C-23.66 23.34 -24.32 22.68 -25 22 C-23.43902526 20.8936781 -21.87614673 19.79004215 -20.3125 18.6875 C-19.44238281 18.07261719 -18.57226562 17.45773438 -17.67578125 16.82421875 C-15 15 -15 15 -12.39453125 13.515625 C-9.88938782 11.92998773 -8.27648375 10.32431058 -6.375 8.0625 C-5.80523437 7.39347656 -5.23546875 6.72445312 -4.6484375 6.03515625 C-3.04734087 4.0584469 -1.51072963 2.04635195 0 0 Z " fill="#FECBD5" transform="translate(201,168)"/>
<path d="M0 0 C1.32 0.33 2.64 0.66 4 1 C4 1.66 4 2.32 4 3 C4.99 3.33 5.98 3.66 7 4 C10.57845419 8.47306773 12.8534514 13.73119889 15 19 C15.515625 19.969375 16.03125 20.93875 16.5625 21.9375 C18.87616395 26.86661016 20.67606835 31.61263746 19 37 C18.41666667 35.54166667 17.83333333 34.08333333 17.25 32.625 C16.88390625 31.71234375 16.5178125 30.7996875 16.140625 29.859375 C15.41460132 28.03934304 14.69511484 26.21667966 13.984375 24.390625 C10.70421447 16.00799255 7.58364315 9.21479338 1.390625 2.56640625 C0 1 0 1 0 0 Z " fill="#FE859C" transform="translate(192,37)"/>
<path d="M0 0 C0.33 0 0.66 0 1 0 C1.02187378 1.81419434 1.02187378 1.81419434 1.04418945 3.66503906 C1.10270345 8.20536047 1.1799273 12.74521308 1.26245117 17.28515625 C1.29545307 19.24015626 1.3235597 21.1952459 1.34643555 23.15039062 C1.47453027 33.81223207 1.6802869 43.75986793 5 54 C5.34340318 55.33077539 5.68046167 56.66329355 6 58 C1.90857126 53.22666646 -0.26056743 49.3775286 -0.22705078 43.02612305 C-0.22689972 42.06550461 -0.22674866 41.10488617 -0.22659302 40.11515808 C-0.21627045 39.0910231 -0.20594788 38.06688812 -0.1953125 37.01171875 C-0.1924826 35.95338333 -0.18965271 34.89504791 -0.18673706 33.80464172 C-0.1755629 30.43214502 -0.15046307 27.05991613 -0.125 23.6875 C-0.11496664 21.3977903 -0.10584141 19.10807643 -0.09765625 16.81835938 C-0.0756326 11.21214857 -0.04218236 5.60609342 0 0 Z " fill="#FE7B94" transform="translate(55,88)"/>
<path d="M0 0 C0.62994873 0.4844458 1.25989746 0.9688916 1.90893555 1.46801758 C6.1399322 3.56496916 9.79428793 3.47751216 14.45703125 3.51171875 C15.35999435 3.52966995 16.26295746 3.54762115 17.19328308 3.56611633 C20.06630844 3.62013021 22.93916851 3.65408637 25.8125 3.6875 C27.76499691 3.72068096 29.71747204 3.75517134 31.66992188 3.79101562 C36.44649516 3.8758516 41.22302018 3.94270536 46 4 C46 3.34 46 2.68 46 2 C46.66 2 47.32 2 48 2 C48.33 1.34 48.66 0.68 49 0 C49 1.65 49 3.3 49 5 C43.64740801 5.91006038 38.56607189 6.10647784 33.14453125 5.984375 C32.32047287 5.96787903 31.49641449 5.95138306 30.64738464 5.93438721 C28.91695117 5.89710501 27.18658464 5.85658858 25.45629883 5.81298828 C22.8101347 5.74994365 20.16416829 5.7086742 17.51757812 5.66796875 C15.83069772 5.62894028 14.1438466 5.58862053 12.45703125 5.546875 C11.66843216 5.53734802 10.87983307 5.52782104 10.06733704 5.51800537 C6.77260771 5.4152116 4.37741491 5.21033493 1.47143555 3.59082031 C0 2 0 2 0 0 Z " fill="#FEA0B2" transform="translate(154,218)"/>
<path d="M0 0 C4.37080987 0.66224392 8.09980027 1.90544829 12 4 C13.05008653 5.97416268 14.04987876 7.97582866 15 10 C18.04797373 12.36702059 18.04797373 12.36702059 21 14 C20.67 14.99 20.34 15.98 20 17 C17.41359791 14.92045364 14.83144261 12.83569844 12.25 10.75 C11.52039063 10.16347656 10.79078125 9.57695312 10.0390625 8.97265625 C6.52031409 6.1256689 3.10802298 3.30431917 0 0 Z " fill="#FEC3CE" transform="translate(179,200)"/>
<path d="M0 0 C0.66 0.33 1.32 0.66 2 1 C0.34672288 2.81860483 -0.82851095 3.92938686 -3.125 4.875 C-5.21969827 5.87623515 -5.21969827 5.87623515 -5.9375 8.3125 C-6.01633931 11.70259051 -4.94140969 13.28202643 -3 16 C-6.43595166 14.47291037 -9.11912454 12.40072955 -12 10 C-12.0625 7.75 -12.0625 7.75 -11 5 C-8.13713032 3.30017113 -5.11140098 2.16463449 -2 1 C-1.34 0.67 -0.68 0.34 0 0 Z " fill="#FD8FA3" transform="translate(182,184)"/>
<path d="M0 0 C1.46509815 2.9301963 0.4949713 4.74461363 -0.3125 7.875 C-0.70888672 9.44894531 -0.70888672 9.44894531 -1.11328125 11.0546875 C-1.88171413 13.60710331 -2.55906918 15.76317599 -4 18 C-4.99 18.33 -5.98 18.66 -7 19 C-8.34331654 20.99330842 -9.67594012 22.99384866 -11 25 C-13.25 26.875 -13.25 26.875 -15 28 C-13.65390589 25.14272478 -12.09919528 22.68007089 -10.25 20.125 C-6.76067507 14.9981786 -4.52674464 9.56176636 -2.19921875 3.84375 C-1 1 -1 1 0 0 Z " fill="#FB4768" transform="translate(207,146)"/>
<path d="M0 0 C1.33895632 1.66215268 2.67130142 3.32963607 4 5 C4.515625 5.61875 5.03125 6.2375 5.5625 6.875 C7 9 7 9 8.5 12.625 C9.73188728 16.20768469 9.73188728 16.20768469 13 18 C13.6875 20.125 13.6875 20.125 14 22 C12 22 12 22 10.66796875 20.71484375 C9.09312178 18.82419633 7.53715785 16.92144731 6 15 C5.5153125 14.42507812 5.030625 13.85015625 4.53125 13.2578125 C1.0660897 8.88606956 0.29263731 5.56010885 0 0 Z " fill="#FED0D9" transform="translate(30,158)"/>
<path d="M0 0 C0.66 0.33 1.32 0.66 2 1 C0.9275 1.7425 -0.145 2.485 -1.25 3.25 C-3.44932651 4.80583619 -5.20364552 6.21598767 -7.0625 8.1875 C-9.48448427 10.45322722 -11.888415 10.962805 -15 12 C-15.33 12.99 -15.66 13.98 -16 15 C-16.99 14.67 -17.98 14.34 -19 14 C-18.92578125 12.22265625 -18.92578125 12.22265625 -18 10 C-15.7218305 8.62956168 -13.59701173 7.51512082 -11.1875 6.4375 C-7.19209903 4.59315421 -3.41413714 2.8293479 0 0 Z " fill="#FC4366" transform="translate(186,178)"/>
<path d="M0 0 C0.66 0.33 1.32 0.66 2 1 C1.6875 3.375 1.6875 3.375 1 6 C-2.83672283 8.55781522 -5.94535987 8.25306456 -10.38671875 8.1953125 C-11.20372757 8.1924826 -12.02073639 8.18965271 -12.86250305 8.18673706 C-15.47098459 8.17554541 -18.0791223 8.1504429 -20.6875 8.125 C-22.45637525 8.11496888 -24.22525588 8.10584326 -25.99414062 8.09765625 C-30.32955949 8.07560942 -34.66472145 8.0410867 -39 8 C-39 7.67 -39 7.34 -39 7 C-26.46 6.67 -13.92 6.34 -1 6 C-0.67 4.02 -0.34 2.04 0 0 Z " fill="#FEECEF" transform="translate(205,218)"/>
<path d="M0 0 C0.66 0.33 1.32 0.66 2 1 C0.71372289 2.17260611 -0.57919783 3.3379283 -1.875 4.5 C-2.59429687 5.1496875 -3.31359375 5.799375 -4.0546875 6.46875 C-6 8 -6 8 -8 8 C-8.226875 8.639375 -8.45375 9.27875 -8.6875 9.9375 C-10.48565826 14.13320261 -12.73904021 18.03900556 -15 22 C-15.93423645 18.98968256 -16.04449911 18.13349732 -15 15 C-14.34 15 -13.68 15 -13 15 C-12.67 13.35 -12.34 11.7 -12 10 C-11.34 10 -10.68 10 -10 10 C-9.67 9.01 -9.34 8.02 -9 7 C-4.54285714 3 -4.54285714 3 -2 3 C-2 2.34 -2 1.68 -2 1 C-1.34 0.67 -0.68 0.34 0 0 Z " fill="#FB395C" transform="translate(72,52)"/>
<path d="M0 0 C0.33 0 0.66 0 1 0 C1.40652968 5.42039575 0.03993514 9.07015675 -2 14 C-2.66 14 -3.32 14 -4 14 C-4.268125 14.94875 -4.53625 15.8975 -4.8125 16.875 C-6 20 -6 20 -9 22 C-7.64474464 17.78224268 -6.09799886 13.70578678 -4.375 9.625 C-3.92898437 8.56539062 -3.48296875 7.50578125 -3.0234375 6.4140625 C-2.68570313 5.61742187 -2.34796875 4.82078125 -2 4 C-1.34 4 -0.68 4 0 4 C0 2.68 0 1.36 0 0 Z " fill="#FDABB9" transform="translate(211,144)"/>
<path d="M0 0 C5.03163018 4.29785078 10.02718443 8.63425542 15 13 C14.67 13.99 14.34 14.98 14 16 C12.65826597 15.07456291 11.32679841 14.13422595 10 13.1875 C8.88625 12.40439453 8.88625 12.40439453 7.75 11.60546875 C7.1725 11.07566406 6.595 10.54585937 6 10 C6 9.01 6 8.02 6 7 C5.38125 6.773125 4.7625 6.54625 4.125 6.3125 C1.38589791 4.62070165 0.94975528 3.00755839 0 0 Z " fill="#FEADBC" transform="translate(37,169)"/>
<path d="M0 0 C3.14565046 -0.08845016 6.29097375 -0.14086835 9.4375 -0.1875 C10.31599609 -0.21263672 11.19449219 -0.23777344 12.09960938 -0.26367188 C18.28013906 -0.33209102 23.27540087 0.67183887 29 3 C25.32238696 4.04638722 22.78508767 3.80223382 19 3.125 C12.67726635 2.06524396 6.3931125 1.43772662 0 1 C0 0.67 0 0.34 0 0 Z " fill="#FEDEE5" transform="translate(129,13)"/>
<path d="M0 0 C2.78712092 1.39356046 3.26463329 3.16505673 4.625 5.9375 C5.07101563 6.83339844 5.51703125 7.72929687 5.9765625 8.65234375 C7 11 7 11 7 13 C7.61875 13.2475 8.2375 13.495 8.875 13.75 C11.35068687 15.20628639 11.95125002 16.37812506 13 19 C8.14517855 17.29425192 5.88971881 15.82705638 3.61328125 11.15234375 C3.18402344 10.09144531 2.75476562 9.03054687 2.3125 7.9375 C1.87550781 6.87402344 1.43851563 5.81054688 0.98828125 4.71484375 C0 2 0 2 0 0 Z " fill="#FEDDE2" transform="translate(61,139)"/>
<path d="M0 0 C0.33 0.99 0.66 1.98 1 3 C-0.36328125 4.97265625 -0.36328125 4.97265625 -2.3125 7.0625 C-2.94800781 7.75472656 -3.58351562 8.44695312 -4.23828125 9.16015625 C-7.91101695 12.99576271 -7.91101695 12.99576271 -10.625 13.125 C-11.40875 13.08375 -12.1925 13.0425 -13 13 C-12.34 12.525625 -11.68 12.05125 -11 11.5625 C-6.91137382 8.07013181 -3.50324139 4.06828032 0 0 Z " fill="#EC3A5D" transform="translate(173,145)"/>
<path d="M0 0 C0.33 0 0.66 0 1 0 C1.05849554 3.20825562 1.09376162 6.41637233 1.125 9.625 C1.15013672 10.98044922 1.15013672 10.98044922 1.17578125 12.36328125 C1.21201643 17.32750152 0.96444146 21.34411907 -1 26 C-1.33 26 -1.66 26 -2 26 C-1.33333333 17.33333333 -0.66666667 8.66666667 0 0 Z " fill="#F8375B" transform="translate(210,120)"/>
<path d="M0 0 C0.99 0.33 1.98 0.66 3 1 C2.67 2.32 2.34 3.64 2 5 C3.32 5.33 4.64 5.66 6 6 C6 6.66 6 7.32 6 8 C6.99 8.33 7.98 8.66 9 9 C8.67 9.66 8.34 10.32 8 11 C1.00436681 7.89082969 1.00436681 7.89082969 -1 4 C-0.6875 1.75 -0.6875 1.75 0 0 Z " fill="#FFE4EB" transform="translate(176,191)"/>
<path d="M0 0 C1.2380014 3.57644848 0.74926071 6.33694766 0 10 C-0.66 10 -1.32 10 -2 10 C-2.99 13.3 -3.98 16.6 -5 20 C-6.11443 15.54227999 -5.67839653 14.2145485 -4.1875 10 C-3.83042969 8.96875 -3.47335938 7.9375 -3.10546875 6.875 C-2.18819407 4.48943759 -1.19750105 2.25411962 0 0 Z " fill="#E94A69" transform="translate(29,54)"/>
<path d="M0 0 C-5.97332123 3.4753869 -10.11509775 4.57374185 -17 4 C-14.23719462 2.15812975 -12.19292174 1.27751723 -9.0625 0.3125 C-7.78052734 -0.09548828 -7.78052734 -0.09548828 -6.47265625 -0.51171875 C-3.89489426 -1.02075548 -2.45550663 -0.84888744 0 0 Z " fill="#ED355B" transform="translate(83,17)"/>
<path d="M0 0 C6.57534861 0.62031591 12.66692592 2.14897283 19 4 C19 4.33 19 4.66 19 5 C11.88486245 5.53699151 6.55004254 3.69707634 0 1 C0 0.67 0 0.34 0 0 Z " fill="#FDBCCC" transform="translate(74,158)"/>
<path d="M0 0 C0 3.85249662 -1.46295988 6.73608333 -3 10.1875 C-3.28617188 10.84169922 -3.57234375 11.49589844 -3.8671875 12.16992188 C-4.57324774 13.78209275 -5.28598322 15.39133719 -6 17 C-7.60590933 12.19319655 -6.0336293 8.46906438 -4 4 C-1.8125 1.4375 -1.8125 1.4375 0 0 Z " fill="#FE849A" transform="translate(63,65)"/>
<path d="M0 0 C1.32 0.33 2.64 0.66 4 1 C4 1.66 4 2.32 4 3 C4.99 3.33 5.98 3.66 7 4 C8.38671875 5.77734375 8.38671875 5.77734375 9.6875 7.9375 C10.34298828 9.00291016 10.34298828 9.00291016 11.01171875 10.08984375 C12 12 12 12 12 14 C11.34 14 10.68 14 10 14 C8.37890625 11.953125 8.37890625 11.953125 6.5625 9.25 C4.43782517 6.11117152 2.30146918 3.01232052 0 0 Z " fill="#FEA9B8" transform="translate(192,37)"/>
<path d="M0 0 C6.625 -0.25 6.625 -0.25 10 2 C11.98799818 2.70164642 13.98698517 3.37372872 16 4 C16 4.66 16 5.32 16 6 C12.21760329 5.34309381 8.78158474 4.279869 5.1875 2.9375 C4.21167969 2.57527344 3.23585937 2.21304687 2.23046875 1.83984375 C1.49441406 1.56269531 0.75835937 1.28554688 0 1 C0 0.67 0 0.34 0 0 Z " fill="#FEBDCC" transform="translate(158,17)"/>
<path d="M0 0 C1.66666667 1 3.33333333 2 5 3 C5.845625 3.45375 6.69125 3.9075 7.5625 4.375 C10.34688576 6.23125717 12.03723834 8.31028957 14 11 C12.35 10.67 10.7 10.34 9 10 C9 9.01 9 8.02 9 7 C8.443125 6.896875 7.88625 6.79375 7.3125 6.6875 C4.49885978 5.85101237 2.37853021 4.71782737 0 3 C0 2.01 0 1.02 0 0 Z " fill="#FD9FB1" transform="translate(134,202)"/>
<path d="M0 0 C0.66 0.33 1.32 0.66 2 1 C-5.29840547 9.44646925 -5.29840547 9.44646925 -9 13 C-9 9.27179182 -8.15867987 8.02215181 -6 5 C-4.07604707 3.20333149 -2.0822934 1.61956153 0 0 Z " fill="#FEC1CC" transform="translate(72,57)"/>
<path d="M0 0 C1.32 0 2.64 0 4 0 C4 0.66 4 1.32 4 2 C4.7425 1.87625 5.485 1.7525 6.25 1.625 C9 2 9 2 11.3125 5 C12.1478125 6.485 12.1478125 6.485 13 8 C9.18008284 8 7.88692091 6.76738773 4.8125 4.5625 C3.91144531 3.92441406 3.01039063 3.28632813 2.08203125 2.62890625 C1.39496094 2.09136719 0.70789063 1.55382812 0 1 C0 0.67 0 0.34 0 0 Z " fill="#FEBBC8" transform="translate(174,23)"/>
<path d="M0 0 C1.32 0 2.64 0 4 0 C4 0.66 4 1.32 4 2 C5.32 2 6.64 2 8 2 C11 5.21428571 11 5.21428571 11 8 C10.34 8 9.68 8 9 8 C9 7.34 9 6.68 9 6 C8.071875 5.7525 7.14375 5.505 6.1875 5.25 C2.83541675 3.93545755 1.8122197 3.02036616 0 0 Z " fill="#FEC5CE" transform="translate(187,32)"/>
<path d="M0 0 C-3.11356754 1.62671023 -6.27576452 2.94882554 -9.5625 4.1875 C-10.51253906 4.55230469 -11.46257812 4.91710937 -12.44140625 5.29296875 C-15 6 -15 6 -18 5 C-17.401875 4.71125 -16.80375 4.4225 -16.1875 4.125 C-13.80672208 2.95257974 -13.80672208 2.95257974 -11 1 C-7.28759166 0.19295471 -3.79349787 -0.11157347 0 0 Z " fill="#FED5DF" transform="translate(79,16)"/>
<path d="M0 0 C2.77332272 1.63136631 5.46301167 3.31484793 8.125 5.125 C10.89875221 7.10700596 10.89875221 7.10700596 14 8 C14 8.66 14 9.32 14 10 C9.25 9.125 9.25 9.125 7 8 C7 7.34 7 6.68 7 6 C6.401875 5.71125 5.80375 5.4225 5.1875 5.125 C3 4 3 4 0 2 C0 1.34 0 0.68 0 0 Z " fill="#FEEAEF" transform="translate(48,183)"/>
<path d="M0 0 C0 0.66 0 1.32 0 2 C-0.99 2.33 -1.98 2.66 -3 3 C-3.33 3.66 -3.66 4.32 -4 5 C-7.96 5 -11.92 5 -16 5 C-16 4.67 -16 4.34 -16 4 C-15.15695313 3.79503906 -14.31390625 3.59007812 -13.4453125 3.37890625 C-12.34960938 3.10949219 -11.25390625 2.84007812 -10.125 2.5625 C-9.03445312 2.29566406 -7.94390625 2.02882812 -6.8203125 1.75390625 C-0.25906736 0 -0.25906736 0 0 0 Z " fill="#EC496A" transform="translate(160,158)"/>
<path d="M0 0 C2.77042109 2.77042109 2.39796106 4.76533805 2.625 8.625 C2.69976562 9.81351563 2.77453125 11.00203125 2.8515625 12.2265625 C2.92503906 13.59941406 2.92503906 13.59941406 3 15 C0.84023816 12.84023816 0.58429445 12.00568118 -0.0625 9.125 C-0.21847656 8.44695313 -0.37445313 7.76890625 -0.53515625 7.0703125 C-0.68855469 6.38710938 -0.84195313 5.70390625 -1 5 C-1.33007369 3.66585599 -1.66245117 2.33227237 -2 1 C-1.34 0.67 -0.68 0.34 0 0 Z " fill="#FFC8D2" transform="translate(209,55)"/>
<path d="M0 0 C0.33 0.66 0.66 1.32 1 2 C-0.61000397 5.13950774 -2.38499232 7.63404067 -5 10 C-5.66 9.67 -6.32 9.34 -7 9 C-5.03681826 5.46627288 -2.95929119 2.75520215 0 0 Z " fill="#FEE9EC" transform="translate(199,173)"/>
<path d="M0 0 C1.37489607 2.74979214 0.65650198 4.01990939 -0.1875 6.9375 C-0.54908203 8.25041016 -0.54908203 8.25041016 -0.91796875 9.58984375 C-2.16350962 12.36420735 -3.45460189 13.40319746 -6 15 C-3.10933941 4.44191344 -3.10933941 4.44191344 0 0 Z " fill="#F9385B" transform="translate(207,146)"/>
<path d="M0 0 C0.66 0.33 1.32 0.66 2 1 C0.78294994 2.01471171 -0.44926884 3.0112461 -1.6875 4 C-2.71423828 4.8353125 -2.71423828 4.8353125 -3.76171875 5.6875 C-6.38783056 7.22741897 -8.00603356 7.25168194 -11 7 C-7.71103088 3.18479582 -4.67184669 1.64379791 0 0 Z " fill="#EB3B60" transform="translate(64,21)"/>
<path d="M0 0 C4.67105792 1.55701931 8.08705685 4.08447373 12 7 C11.67 7.99 11.34 8.98 11 10 C9.16375669 8.52444734 7.3310715 7.04446569 5.5 5.5625 C4.4790625 4.73878906 3.458125 3.91507813 2.40625 3.06640625 C1.6121875 2.38449219 0.818125 1.70257813 0 1 C0 0.67 0 0.34 0 0 Z " fill="#FEAAB8" transform="translate(188,207)"/>
<path d="M0 0 C1.32 0.33 2.64 0.66 4 1 C4.12375 1.5775 4.2475 2.155 4.375 2.75 C5.00648824 5.02335767 5.88858191 6.9253529 7 9 C4.13998967 7.71792641 1.92960588 6.50848764 0 4 C0 2.68 0 1.36 0 0 Z " fill="#FEAFBF" transform="translate(172,191)"/>
<path d="M0 0 C2.78633115 4.17949673 4 6.93375326 4 12 C3.34 12 2.68 12 2 12 C2 11.01 2 10.02 2 9 C1.34 9 0.68 9 0 9 C0 6.03 0 3.06 0 0 Z " fill="#FEC6D0" transform="translate(23,140)"/>
<path d="M0 0 C0.99 0.33 1.98 0.66 3 1 C0.03 3.97 -2.94 6.94 -6 10 C-6.33 9.01 -6.66 8.02 -7 7 C-6.34 7 -5.68 7 -5 7 C-5 6.34 -5 5.68 -5 5 C-4.34 5 -3.68 5 -3 5 C-2.690625 4.360625 -2.38125 3.72125 -2.0625 3.0625 C-1 1 -1 1 0 0 Z " fill="#FFDDE2" transform="translate(44,31)"/>
<path d="M0 0 C0.33 1.32 0.66 2.64 1 4 C-3.455 7.96 -3.455 7.96 -8 12 C-8 8.03869629 -6.65122875 7.17085599 -4 4.3125 C-3.2575 3.50425781 -2.515 2.69601563 -1.75 1.86328125 C-1.1725 1.24839844 -0.595 0.63351563 0 0 Z " fill="#FEC4CE" transform="translate(201,168)"/>
<path d="M0 0 C-0.9590625 0.6496875 -0.9590625 0.6496875 -1.9375 1.3125 C-4.26746003 2.91239177 -4.26746003 2.91239177 -5 6 C-5.99 5.67 -6.98 5.34 -8 5 C-7.75 3.125 -7.75 3.125 -7 1 C-4.09342573 -1.03460199 -3.47133392 -1.15711131 0 0 Z " fill="#FA365B" transform="translate(175,187)"/>
<path d="M0 0 C0.65234375 1.734375 0.65234375 1.734375 1 4 C0.00390625 6.140625 0.00390625 6.140625 -1.4375 8.25 C-1.91058594 8.95640625 -2.38367188 9.6628125 -2.87109375 10.390625 C-3.24363281 10.92171875 -3.61617187 11.4528125 -4 12 C-4.33 11.34 -4.66 10.68 -5 10 C-4.00390625 7.6171875 -4.00390625 7.6171875 -2.5625 4.875 C-1.85287109 3.50988281 -1.85287109 3.50988281 -1.12890625 2.1171875 C-0.75636719 1.41851562 -0.38382813 0.71984375 0 0 Z " fill="#FE99AA" transform="translate(207,154)"/>
<path d="M0 0 C0.33 0.66 0.66 1.32 1 2 C0.00390625 4.1640625 0.00390625 4.1640625 -1.4375 6.625 C-1.91058594 7.44226562 -2.38367187 8.25953125 -2.87109375 9.1015625 C-3.24363281 9.72804688 -3.61617187 10.35453125 -4 11 C-4.66 10.67 -5.32 10.34 -6 10 C-4.6302836 6.00499382 -2.74277578 3.19990508 0 0 Z " fill="#EE4465" transform="translate(38,40)"/>
<path d="M0 0 C1.98 0.99 1.98 0.99 4 2 C4 2.66 4 3.32 4 4 C5.32 4.33 6.64 4.66 8 5 C8 5.66 8 6.32 8 7 C7.34 7 6.68 7 6 7 C6 6.34 6 5.68 6 5 C4.35 4.67 2.7 4.34 1 4 C0.67 2.68 0.34 1.36 0 0 Z " fill="#FEE5E7" transform="translate(185,27)"/>
<path d="M0 0 C-1.44390925 3.80666984 -3.34952803 5.26602582 -7 7 C-7.66 6.67 -8.32 6.34 -9 6 C-7.8803014 4.99406757 -6.7540588 3.9954151 -5.625 3 C-4.68527344 2.1646875 -4.68527344 2.1646875 -3.7265625 1.3125 C-2 0 -2 0 0 0 Z " fill="#FED7E0" transform="translate(193,180)"/>
<path d="M0 0 C0.33 0 0.66 0 1 0 C1.61538462 7.26153846 1.61538462 7.26153846 -1.5 11 C-2.325 11.66 -3.15 12.32 -4 13 C-3.71125 12.154375 -3.4225 11.30875 -3.125 10.4375 C-1.99227296 6.97638959 -0.98175684 3.50627443 0 0 Z " fill="#EC4566" transform="translate(178,131)"/>
<path d="M0 0 C2.475 0.495 2.475 0.495 5 1 C4.67 3.31 4.34 5.62 4 8 C3.01 7.67 2.02 7.34 1 7 C1.66 7 2.32 7 3 7 C2.42547254 3.06924356 2.42547254 3.06924356 0 0 Z " fill="#FED4DA" transform="translate(200,216)"/>
<path d="M0 0 C4.875 2.75 4.875 2.75 6 5 C4.02 5 2.04 5 0 5 C0 3.35 0 1.7 0 0 Z " fill="#F32950" transform="translate(195,214)"/>
<path d="M0 0 C2.3125 0.1875 2.3125 0.1875 5 1 C6.8125 3.5625 6.8125 3.5625 8 6 C4.08597051 4.73058503 2.20927127 3.48832306 0 0 Z " fill="#FEACBC" transform="translate(66,152)"/>
<path d="M0 0 C0 1.98 0 3.96 0 6 C-2.01920337 4.69593116 -4.01924973 3.36176581 -6 2 C-6 1.67 -6 1.34 -6 1 C-1.125 0 -1.125 0 0 0 Z " fill="#F3375C" transform="translate(54,178)"/>
<path d="M0 0 C0.66 0.33 1.32 0.66 2 1 C0.02 3.31 -1.96 5.62 -4 8 C-4.33 7.34 -4.66 6.68 -5 6 C-2.59016393 1.29508197 -2.59016393 1.29508197 0 0 Z " fill="#FED9DE" transform="translate(172,144)"/>
<path d="M0 0 C0.33 0 0.66 0 1 0 C1 1.65 1 3.3 1 5 C-1.31 5.33 -3.62 5.66 -6 6 C-4.71034824 4.62437146 -3.37310707 3.29233607 -2 2 C-1.34 2 -0.68 2 0 2 C0 1.34 0 0.68 0 0 Z " fill="#FBB2BD" transform="translate(202,218)"/>
<path d="M0 0 C6.4 -0.49230769 6.4 -0.49230769 9.4375 2 C10.2109375 2.99 10.2109375 2.99 11 4 C7.1936543 3.32829194 3.64793184 2.27253436 0 1 C0 0.67 0 0.34 0 0 Z " fill="#FEA7B6" transform="translate(123,198)"/>
<path d="M0 0 C0.66 0.33 1.32 0.66 2 1 C1.360625 1.2475 0.72125 1.495 0.0625 1.75 C-2.18741541 2.81562433 -2.18741541 2.81562433 -2.75 5.125 C-2.8325 5.74375 -2.915 6.3625 -3 7 C-3.33 5.35 -3.66 3.7 -4 2 C-2.125 0.9375 -2.125 0.9375 0 0 Z " fill="#FD768E" transform="translate(174,188)"/>
</svg>
